<?xml version="1.0" standalone="no"?>
<!DOCTYPE svg PUBLIC "-//W3C//DTD SVG 20010904//EN"
 "http://www.w3.org/TR/2001/REC-SVG-20010904/DTD/svg10.dtd">
<svg version="1.0" xmlns="http://www.w3.org/2000/svg"
 width="300.000000pt" height="287.000000pt" viewBox="0 0 300.000000 287.000000"
 preserveAspectRatio="xMidYMid meet">
    <rect fill="#ffffff" height="130" id="svg_16" stroke="#000000" width="205.38" x="50.35" y="84.4"/>
    <rect fill="#ffff00" height="113.85" id="svg_15" stroke="#000000" transform="matrix(1 0 0 1 0 0)" width="62.31" x="111.89" y="91.32"/>
<g fill="#318CE7" transform="translate(0.000000,287.000000) scale(0.100000,-0.100000)">
<path d="m1039,2847c-65,-25 -125,-79 -253,-231c-63,-75 -125,-114 -268,-172c-225,-90 -267,-148 -283,-384c-10,-157 -29,-228 -88,-322c-28,-46 -68,-116 -88,-155c-76,-147 -64,-213 79,-436c64,-100 81,-157 97,-332c24,-265 50,-298 337,-415c115,-47 161,-82 259,-200c166,-199 225,-219 467,-159c166,41 236,41 404,0c254,-62 286,-48 520,220c61,71 123,109 283,173c111,45 157,75 195,128c40,55 48,87 65,264c16,174 29,216 109,342c144,229 146,304 12,512c-94,144 -110,195 -121,370c-12,181 -47,266 -131,319c-24,16 -106,55 -182,87c-150,64 -138,53 -352,281c-128,136 -176,146 -410,87c-143,-37 -240,-37 -385,0c-133,34 -217,41 -266,23zm-118,-1112c40,-14 44,-14 64,5c12,11 24,20 28,20c4,0 7,-49 7,-110c0,-61 -4,-110 -9,-110c-5,0 -22,25 -38,57c-39,77 -88,115 -157,121c-51,4 -57,2 -86,-26c-37,-37 -40,-80 -7,-117c12,-15 76,-54 142,-88c98,-51 125,-70 150,-105c27,-39 30,-52 30,-117c0,-67 -3,-76 -31,-112c-65,-80 -173,-110 -292,-79c-79,20 -98,20 -106,1c-3,-8 -12,-15 -21,-15c-13,0 -15,19 -15,120c0,113 1,120 20,120c11,0 20,-7 20,-16c0,-37 54,-126 93,-155c33,-24 50,-29 99,-29c52,0 63,3 89,29c23,24 29,38 29,73c0,57 -25,81 -147,142c-51,25 -108,59 -127,76c-66,58 -81,149 -39,237c42,88 176,123 304,78zm679,-10c0,-10 -10,-15 -27,-15c-14,0 -35,-7 -45,-17c-17,-15 -18,-37 -18,-281c0,-292 2,-302 62,-302c18,0 28,-5 28,-15c0,-13 -26,-15 -170,-15c-144,0 -170,2 -170,15c0,9 9,15 25,15c14,0 34,9 45,20c19,19 20,33 20,278c0,286 -3,302 -61,302c-19,0 -29,5 -29,15c0,13 26,15 170,15c144,0 170,-2 170,-15zm641,-1c103,-30 147,-88 137,-179c-7,-57 -32,-90 -95,-121l-53,-26l34,-47c18,-25 63,-89 100,-141c37,-52 76,-98 87,-102c43,-16 4,-28 -90,-28l-98,0l-99,150c-54,82 -105,150 -111,150c-10,0 -13,-30 -13,-117c0,-127 10,-153 57,-153c14,0 23,-6 23,-15c0,-13 -25,-15 -165,-15c-140,0 -165,2 -165,15c0,9 9,15 23,15c13,0 32,6 43,14c18,14 19,29 19,284c0,294 -2,302 -56,302c-19,0 -29,5 -29,15c0,23 373,22 451,-1z"/>
<path d="m2063,1699c-22,-8 -23,-13 -23,-144l0,-135l38,0c47,0 103,28 119,60c18,35 16,135 -2,170c-23,44 -86,67 -132,49z"/>
</g>

</svg>
