<?xml version="1.0" standalone="no"?>
<!DOCTYPE svg PUBLIC "-//W3C//DTD SVG 20010904//EN"
 "http://www.w3.org/TR/2001/REC-SVG-20010904/DTD/svg10.dtd">
<svg version="1.0" xmlns="http://www.w3.org/2000/svg"
 width="300.000000pt" height="287.000000pt" viewBox="0 0 300.000000 287.000000"
 preserveAspectRatio="xMidYMid meet">

<g transform="translate(0.000000,287.000000) scale(0.100000,-0.100000)"
fill="#000000" stroke="none">
<path d="M1039 2847 c-65 -25 -125 -79 -253 -231 -63 -75 -125 -114 -268 -172
-225 -90 -267 -148 -283 -384 -10 -157 -29 -228 -88 -322 -28 -46 -68 -116
-88 -155 -76 -147 -64 -213 79 -436 64 -100 81 -157 97 -332 24 -265 50 -298
337 -415 115 -47 161 -82 259 -200 166 -199 225 -219 467 -159 166 41 236 41
404 0 254 -62 286 -48 520 220 61 71 123 109 283 173 111 45 157 75 195 128
40 55 48 87 65 264 16 174 29 216 109 342 144 229 146 304 12 512 -94 144
-110 195 -121 370 -12 181 -47 266 -131 319 -24 16 -106 55 -182 87 -150 64
-138 53 -352 281 -128 136 -176 146 -410 87 -143 -37 -240 -37 -385 0 -133 34
-217 41 -266 23z m-118 -1112 c40 -14 44 -14 64 5 12 11 24 20 28 20 4 0 7
-49 7 -110 0 -61 -4 -110 -9 -110 -5 0 -22 25 -38 57 -39 77 -88 115 -157 121
-51 4 -57 2 -86 -26 -37 -37 -40 -80 -7 -117 12 -15 76 -54 142 -88 98 -51
125 -70 150 -105 27 -39 30 -52 30 -117 0 -67 -3 -76 -31 -112 -65 -80 -173
-110 -292 -79 -79 20 -98 20 -106 1 -3 -8 -12 -15 -21 -15 -13 0 -15 19 -15
120 0 113 1 120 20 120 11 0 20 -7 20 -16 0 -37 54 -126 93 -155 33 -24 50
-29 99 -29 52 0 63 3 89 29 23 24 29 38 29 73 0 57 -25 81 -147 142 -51 25
-108 59 -127 76 -66 58 -81 149 -39 237 42 88 176 123 304 78z m679 -10 c0
-10 -10 -15 -27 -15 -14 0 -35 -7 -45 -17 -17 -15 -18 -37 -18 -281 0 -292 2
-302 62 -302 18 0 28 -5 28 -15 0 -13 -26 -15 -170 -15 -144 0 -170 2 -170 15
0 9 9 15 25 15 14 0 34 9 45 20 19 19 20 33 20 278 0 286 -3 302 -61 302 -19
0 -29 5 -29 15 0 13 26 15 170 15 144 0 170 -2 170 -15z m641 -1 c103 -30 147
-88 137 -179 -7 -57 -32 -90 -95 -121 l-53 -26 34 -47 c18 -25 63 -89 100
-141 37 -52 76 -98 87 -102 43 -16 4 -28 -90 -28 l-98 0 -99 150 c-54 82 -105
150 -111 150 -10 0 -13 -30 -13 -117 0 -127 10 -153 57 -153 14 0 23 -6 23
-15 0 -13 -25 -15 -165 -15 -140 0 -165 2 -165 15 0 9 9 15 23 15 13 0 32 6
43 14 18 14 19 29 19 284 0 294 -2 302 -56 302 -19 0 -29 5 -29 15 0 23 373
22 451 -1z"/>
<path d="M2063 1699 c-22 -8 -23 -13 -23 -144 l0 -135 38 0 c47 0 103 28 119
60 18 35 16 135 -2 170 -23 44 -86 67 -132 49z"/>
</g>
</svg>
